<?xml version="1.0" encoding="UTF-8"?>
<svg width="17px" height="17px" viewBox="0 0 17 17" version="1.1" xmlns="http://www.w3.org/2000/svg" xmlns:xlink="http://www.w3.org/1999/xlink">
    <!-- Generator: Sketch 53 (72520) - https://sketchapp.com -->
    <title>Fill 25</title>
    <desc>Created with Sketch.</desc>
    <g id="v2" stroke="none" stroke-width="1" fill="none" fill-rule="evenodd">
        <g id="Questions---Mobile-(Expanded)" transform="translate(-303.000000, -1513.000000)" fill="#00A6B5">
            <g id="//-SWOT-ANALYSIS-//" transform="translate(0.000000, 1277.000000)">
                <g id="::-strengths" transform="translate(34.000000, 64.000000)">
                    <path d="M280.6875,181.03125 L278.03125,181.03125 L278.03125,183.6875 C278.03125,183.979687 277.793781,184.21875 277.5,184.21875 C277.206219,184.21875 276.96875,183.979687 276.96875,183.6875 L276.96875,181.03125 L274.3125,181.03125 C274.018719,181.03125 273.78125,180.792187 273.78125,180.5 C273.78125,180.207812 274.018719,179.96875 274.3125,179.96875 L276.96875,179.96875 L276.96875,177.3125 C276.96875,177.020312 277.206219,176.78125 277.5,176.78125 C277.793781,176.78125 278.03125,177.020312 278.03125,177.3125 L278.03125,179.96875 L280.6875,179.96875 C280.981281,179.96875 281.21875,180.207812 281.21875,180.5 C281.21875,180.792187 280.981281,181.03125 280.6875,181.03125 L280.6875,181.03125 Z M277.5,172 C272.805344,172 269,175.80375 269,180.5 C269,185.19625 272.805344,189 277.5,189 C282.194656,189 286,185.19625 286,180.5 C286,175.80375 282.194656,172 277.5,172 L277.5,172 Z" id="Fill-25"></path>
                </g>
            </g>
        </g>
    </g>
</svg>