<?xml version="1.0" encoding="UTF-8"?>
<svg width="26px" height="26px" viewBox="0 0 26 26" version="1.1" xmlns="http://www.w3.org/2000/svg" xmlns:xlink="http://www.w3.org/1999/xlink">
    <!-- Generator: Sketch 53 (72520) - https://sketchapp.com -->
    <title>Fill 29</title>
    <desc>Created with Sketch.</desc>
    <g id="v2" stroke="none" stroke-width="1" fill="none" fill-rule="evenodd">
        <g id="Tooltip---Desktop" transform="translate(-136.000000, -780.000000)" fill="#00A6B5">
            <g id="//-BUTTONS-//" transform="translate(136.000000, 745.000000)">
                <g id="::-btn---previous" transform="translate(0.000000, 35.000000)">
                    <g id="back-button" transform="translate(0.000000, 0.000000)">
                        <path d="M18.6875,12.1875 L10.086375,12.1875 L13.4355,8.84 C13.752375,8.523125 13.752375,8.01125 13.4355,7.68625 C13.1178125,7.369375 12.6035,7.369375 12.2858125,7.68625 L7.6895,12.285 C7.4953125,12.48 7.434375,12.748125 7.4790625,13 C7.434375,13.251875 7.4953125,13.52 7.6895,13.715 L12.2858125,18.31375 C12.6035,18.630625 13.1178125,18.630625 13.4355,18.31375 C13.752375,17.996875 13.752375,17.476875 13.4355,17.16 L10.086375,13.8125 L18.6875,13.8125 C19.136,13.8125 19.5,13.446875 19.5,13 C19.5,12.553125 19.136,12.1875 18.6875,12.1875 L18.6875,12.1875 Z M13,24.375 C6.71775,24.375 1.625,19.280625 1.625,13 C1.625,6.719375 6.71775,1.625 13,1.625 C19.28225,1.625 24.375,6.719375 24.375,13 C24.375,19.280625 19.28225,24.375 13,24.375 L13,24.375 Z M13,0 C5.82075,0 0,5.8175 0,13 C0,20.1825 5.82075,26 13,26 C20.17925,26 26,20.1825 26,13 C26,5.8175 20.17925,0 13,0 L13,0 Z" id="Fill-29"></path>
                    </g>
                </g>
            </g>
        </g>
    </g>
</svg>