<?xml version="1.0" encoding="UTF-8"?>
<svg width="26px" height="26px" viewBox="0 0 26 26" version="1.1" xmlns="http://www.w3.org/2000/svg" xmlns:xlink="http://www.w3.org/1999/xlink">
    <!-- Generator: Sketch 53 (72520) - https://sketchapp.com -->
    <title>Fill 29</title>
    <desc>Created with Sketch.</desc>
    <g id="v2" stroke="none" stroke-width="1" fill="none" fill-rule="evenodd">
        <g id="Results---Desktop-" transform="translate(-71.000000, -253.000000)" fill="#00A6B5">
            <path d="M89.6875,265.1875 L81.086375,265.1875 L84.4355,261.84 C84.752375,261.523125 84.752375,261.01125 84.4355,260.68625 C84.1178125,260.369375 83.6035,260.369375 83.2858125,260.68625 L78.6895,265.285 C78.4953125,265.48 78.434375,265.748125 78.4790625,266 C78.434375,266.251875 78.4953125,266.52 78.6895,266.715 L83.2858125,271.31375 C83.6035,271.630625 84.1178125,271.630625 84.4355,271.31375 C84.752375,270.996875 84.752375,270.476875 84.4355,270.16 L81.086375,266.8125 L89.6875,266.8125 C90.136,266.8125 90.5,266.446875 90.5,266 C90.5,265.553125 90.136,265.1875 89.6875,265.1875 L89.6875,265.1875 Z M84,277.375 C77.71775,277.375 72.625,272.280625 72.625,266 C72.625,259.719375 77.71775,254.625 84,254.625 C90.28225,254.625 95.375,259.719375 95.375,266 C95.375,272.280625 90.28225,277.375 84,277.375 L84,277.375 Z M84,253 C76.82075,253 71,258.8175 71,266 C71,273.1825 76.82075,279 84,279 C91.17925,279 97,273.1825 97,266 C97,258.8175 91.17925,253 84,253 L84,253 Z" id="Fill-29"></path>
        </g>
    </g>
</svg>