<?xml version="1.0" encoding="UTF-8"?>
<svg width="13px" height="14px" viewBox="0 0 13 14" version="1.1" xmlns="http://www.w3.org/2000/svg" xmlns:xlink="http://www.w3.org/1999/xlink">
    <!-- Generator: Sketch 53 (72520) - https://sketchapp.com -->
    <title>download icon</title>
    <desc>Created with Sketch.</desc>
    <g id="v2" stroke="none" stroke-width="1" fill="none" fill-rule="evenodd">
        <g id="Questions---Mobile-(Expanded)" transform="translate(-243.000000, -181.000000)" fill="#FFFFFF" fill-rule="nonzero">
            <g id="//-BTN---VIEW-REPORT-//" transform="translate(222.000000, 167.000000)">
                <g id="download-icon" transform="translate(21.000000, 14.028571)">
                    <path d="M10.9682462,8.29702857 L10.9682462,11.2710171 L1.94492308,11.2710171 L1.94492308,8.29702857 L0.210646154,8.29702857 L0.210646154,12.1452343 C0.210646154,12.6277257 0.598338462,13.0190171 1.07907692,13.0190171 L11.8340923,13.0190171 C12.3144,13.0190171 12.7025231,12.62816 12.7025231,12.1452343 L12.7025231,8.29702857 L10.9682462,8.29702857 Z" id="Path"></path>
                    <path d="M6.29784615,8.00214857 L3.81489231,4.97734857 C3.81489231,4.97734857 3.43710769,4.61776 3.84676923,4.61776 C4.25643077,4.61776 5.24590769,4.61776 5.24590769,4.61776 C5.24590769,4.61776 5.24590769,4.37586286 5.24590769,4.00281143 C5.24590769,2.93924571 5.24590769,1.00363429 5.24590769,0.214537143 C5.24590769,0.214537143 5.19033846,0 5.51083077,0 C5.83390769,0 7.24898462,0 7.48030769,0 C7.7112,0 7.70603077,0.180662857 7.70603077,0.180662857 C7.70603077,0.945874286 7.70603077,2.94836571 7.70603077,3.97718857 C7.70603077,4.31072 7.70603077,4.52699429 7.70603077,4.52699429 C7.70603077,4.52699429 8.49950769,4.52699429 8.99747692,4.52699429 C9.49458462,4.52699429 9.12024615,4.90352 9.12024615,4.90352 C9.12024615,4.90352 7.00775385,7.73072 6.71310769,8.02733714 C6.50116923,8.24230857 6.29784615,8.00214857 6.29784615,8.00214857 Z" id="Path"></path>
                </g>
            </g>
        </g>
    </g>
</svg>