<?xml version="1.0" encoding="UTF-8"?>
<svg width="12px" height="13px" viewBox="0 0 12 13" version="1.1" xmlns="http://www.w3.org/2000/svg" xmlns:xlink="http://www.w3.org/1999/xlink">
    <!-- Generator: Sketch 53 (72520) - https://sketchapp.com -->
    <title>Fill 26</title>
    <desc>Created with Sketch.</desc>
    <g id="v2" stroke="none" stroke-width="1" fill="none" fill-rule="evenodd">
        <g id="Results---Desktop-" transform="translate(-709.000000, -721.000000)" fill="#00A6B5">
            <g id="//-REPORT-//" transform="translate(250.000000, 390.000000)">
                <path d="M469.160812,337.56125 L465.8125,340.916875 L465.8125,332.3125 C465.8125,331.865625 465.449312,331.5 465,331.5 C464.5515,331.5 464.1875,331.865625 464.1875,332.3125 L464.1875,340.916875 L460.839188,337.56125 C460.5215,337.244375 460.007187,337.244375 459.690313,337.56125 C459.372625,337.88625 459.372625,338.398125 459.690313,338.715 L464.285812,343.31375 C464.480812,343.50875 464.747313,343.565625 465,343.516875 C465.252688,343.565625 465.519187,343.50875 465.714187,343.31375 L470.309687,338.715 C470.627375,338.398125 470.627375,337.88625 470.309687,337.56125 C469.993625,337.244375 469.4785,337.244375 469.160812,337.56125 L469.160812,337.56125 Z" id="Fill-26"></path>
            </g>
        </g>
    </g>
</svg>