<?xml version="1.0" encoding="UTF-8"?>
<svg width="11px" height="11px" viewBox="0 0 11 11" version="1.1" xmlns="http://www.w3.org/2000/svg" xmlns:xlink="http://www.w3.org/1999/xlink">
    <!-- Generator: Sketch 53 (72520) - https://sketchapp.com -->
    <title>Fill 25</title>
    <desc>Created with Sketch.</desc>
    <g id="v2" stroke="none" stroke-width="1" fill="none" fill-rule="evenodd">
        <g id="Questions---Mobile-(Collapsed-v1)" transform="translate(-330.000000, -789.000000)" fill="#263745">
            <g id="//-DESCRIPTION" transform="translate(-11.000000, 764.000000)">
                <path d="M351.214286,29.7142857 L347.285714,29.7142857 L347.285714,25.7857143 C347.285714,25.3535714 346.9345,25 346.5,25 C346.0655,25 345.714286,25.3535714 345.714286,25.7857143 L345.714286,29.7142857 L341.785714,29.7142857 C341.351214,29.7142857 341,30.0678571 341,30.5 C341,30.9321429 341.351214,31.2857143 341.785714,31.2857143 L345.714286,31.2857143 L345.714286,35.2142857 C345.714286,35.6464286 346.0655,36 346.5,36 C346.9345,36 347.285714,35.6464286 347.285714,35.2142857 L347.285714,31.2857143 L351.214286,31.2857143 C351.648786,31.2857143 352,30.9321429 352,30.5 C352,30.0678571 351.648786,29.7142857 351.214286,29.7142857 L351.214286,29.7142857 Z" id="Fill-25"></path>
            </g>
        </g>
    </g>
</svg>