<?xml version="1.0" encoding="UTF-8"?>
<svg width="50px" height="52px" viewBox="0 0 50 52" version="1.1" xmlns="http://www.w3.org/2000/svg" xmlns:xlink="http://www.w3.org/1999/xlink">
    <!-- Generator: Sketch 53 (72520) - https://sketchapp.com -->
    <title>:: fitness-icon</title>
    <desc>Created with Sketch.</desc>
    <g id="v2" stroke="none" stroke-width="1" fill="none" fill-rule="evenodd">
        <g id="Account-Menu---Desktop" transform="translate(-1018.000000, -379.000000)" fill="#263745" fill-rule="nonzero">
            <g id="//-FITNESS-//" transform="translate(901.000000, 322.000000)">
                <g id="::-fitness-icon" transform="translate(117.000000, 57.000000)">
                    <path d="M47.2222222,21.8666667 L41.7888889,21.8666667 L40.75,15.1611111 C40.7366875,14.9381743 40.7032175,14.7169007 40.65,14.5 L40.65,14.4333333 L40.65,14.4333333 C40.4792533,13.7880458 40.1376268,13.2007553 39.6611111,12.7333333 C39.3742665,12.4667201 39.0482609,12.2456359 38.6944444,12.0777778 L35.4333333,10.4111111 L35.4333333,10.4111111 C34.9279292,10.1445792 34.3658111,10.0035733 33.7944444,10 L33.3333333,10 L24.1444444,10.1111111 C23.3335149,10.1140678 22.5643693,10.4712436 22.0388889,11.0888889 L16.1888889,18.0388889 C15.2279182,19.1319647 15.2470965,20.7741097 16.2333333,21.8444444 C16.7780657,22.4032733 17.532746,22.7071826 18.312733,22.6818171 C19.0927199,22.6564517 19.8260602,22.3041516 20.3333333,21.7111111 L25.4388889,15.7 L28.5555556,15.7 L19.0166667,27.7944444 L19.0166667,27.7944444 L19.1166667,27.6666667 L19.1166667,27.6666667 L19.0388889,27.7666667 L18.9888889,27.8333333 L18.9888889,27.8333333 L13.0111111,35.3944444 L2.77777778,35.3944444 C1.24365347,35.3944444 0,36.6380979 0,38.1722222 C-4.93432455e-16,39.7063465 1.24365347,40.95 2.77777778,40.95 L14.3333333,40.95 C15.1795433,40.9491389 15.9792131,40.5625977 16.5055556,39.9 L21.8555556,33.1222222 L27.8333333,37.0722222 L27.8333333,37.0722222 L29.2777778,38.0277778 L23.2388889,46.9166667 C22.3843374,48.1304877 22.6069099,49.7973622 23.75,50.7444444 C24.361844,51.2207089 25.1448993,51.4195742 25.9098503,51.2929616 C26.6748014,51.166349 27.3520198,50.7257832 27.7777778,50.0777778 L35.4444444,38.8055556 C35.8573901,38.193689 36.0098099,37.4426195 35.8680496,36.7181826 C35.7262893,35.9937458 35.3020087,35.3555269 34.6888889,34.9444444 L29.6166667,31.6111111 L36.2833333,22.5833333 L36.6666667,25.0555556 C36.8818112,26.4184726 38.0647542,27.4168764 39.4444444,27.4 L47.2222222,27.4 C48.7563465,27.4 50,26.1563465 50,24.6222222 C50,23.0880979 48.7563465,21.8444444 47.2222222,21.8444444 L47.2222222,21.8666667 Z" id="Path"></path>
                    <circle id="Oval" cx="40.7444444" cy="5.57222222" r="5.11111111"></circle>
                </g>
            </g>
        </g>
    </g>
</svg>