<?xml version="1.0" encoding="UTF-8"?>
<svg width="35px" height="35px" viewBox="0 0 35 35" version="1.1" xmlns="http://www.w3.org/2000/svg" xmlns:xlink="http://www.w3.org/1999/xlink">
    <!-- Generator: Sketch 53 (72520) - https://sketchapp.com -->
    <title>:: fitness-icon</title>
    <desc>Created with Sketch.</desc>
    <g id="v2" stroke="none" stroke-width="1" fill="none" fill-rule="evenodd">
        <g id="Account-Menu---Mobile" transform="translate(-41.000000, -525.000000)" fill="#263745" fill-rule="nonzero">
            <g id="::-fitness-icon" transform="translate(41.000000, 525.000000)">
                <path d="M32.4074074,14.3202614 L28.6786492,14.3202614 L27.9656863,9.71840959 C27.9565502,9.56541377 27.9335807,9.41355932 27.8970588,9.26470588 L27.8970588,9.21895425 L27.8970588,9.21895425 C27.7798797,8.77610984 27.5454302,8.37306735 27.2184096,8.05228758 C27.0215554,7.86931772 26.7978261,7.71759325 26.5550109,7.60239651 L24.3169935,6.45860566 L24.3169935,6.45860566 C23.9701475,6.27569162 23.5843802,6.17892286 23.1922658,6.17647059 L22.875817,6.17647059 L16.5697168,6.25272331 C16.0131965,6.25475239 15.4853515,6.49987305 15.1247277,6.92374728 L11.1100218,11.6933551 C10.4505321,12.4435052 10.4636937,13.5704675 11.1405229,14.3050109 C11.5143588,14.6885209 12.0322767,14.8970861 12.5675619,14.8796784 C13.102847,14.8622708 13.6061197,14.6204962 13.9542484,14.2135076 L17.458061,10.0882353 L19.5969499,10.0882353 L13.0506536,18.3883442 L13.0506536,18.3883442 L13.119281,18.3006536 L13.119281,18.3006536 L13.0659041,18.369281 L13.0315904,18.4150327 L13.0315904,18.4150327 L8.9291939,23.6040305 L1.90631808,23.6040305 C0.853487677,23.6040305 -1.42108547e-13,24.4575182 -1.42108547e-13,25.5103486 C-1.42447177e-13,26.563179 0.853487677,27.4166667 1.90631808,27.4166667 L9.83660131,27.4166667 C10.4173336,27.4160757 10.9661266,27.1508023 11.327342,26.6960784 L14.9989107,22.0446623 L19.1013072,24.7554466 L19.1013072,24.7554466 L20.0925926,25.41122 L15.9482571,31.5114379 C15.3618001,32.3444523 15.514546,33.4883859 16.2990196,34.1383442 C16.7189125,34.4651924 17.2563034,34.6016686 17.7812698,34.5147776 C18.3062363,34.4278866 18.770994,34.1255375 19.0631808,33.6808279 L24.3246187,25.9449891 C24.6080128,25.5250807 24.7126146,25.0096408 24.6153282,24.5124783 C24.5180417,24.0153157 24.2268687,23.5773224 23.8061002,23.295207 L20.3251634,21.0076253 L24.9003268,14.8120915 L25.1633987,16.5087146 C25.3110469,17.4440498 26.1228705,18.1292289 27.0697168,18.1176471 L32.4074074,18.1176471 C33.4602378,18.1176471 34.3137255,17.2641594 34.3137255,16.211329 C34.3137255,15.1584986 33.4602378,14.3050109 32.4074074,14.3050109 L32.4074074,14.3202614 Z" id="Path"></path>
                <circle id="Oval" cx="27.9618736" cy="3.82407407" r="3.50762527"></circle>
            </g>
        </g>
    </g>
</svg>