<?xml version="1.0" encoding="UTF-8"?>
<svg width="15px" height="15px" viewBox="0 0 15 15" version="1.1" xmlns="http://www.w3.org/2000/svg" xmlns:xlink="http://www.w3.org/1999/xlink">
    <!-- Generator: Sketch 53 (72520) - https://sketchapp.com -->
    <title>fitness icon</title>
    <desc>Created with Sketch.</desc>
    <g id="v2" stroke="none" stroke-width="1" fill="none" fill-rule="evenodd">
        <g id="Questions---Mobile-(Collapsed-v1)" transform="translate(-280.000000, -70.000000)" fill="#AAAAAA" fill-rule="nonzero">
            <g id="//-SECTIONS-//" transform="translate(0.000000, 55.000000)">
                <g id="::-fitness" transform="translate(280.000000, 8.000000)">
                    <g id="fitness-icon" transform="translate(0.000000, 7.000000)">
                        <circle id="Oval" cx="12.2233333" cy="1.56" r="1.53333333"></circle>
                        <path d="M14.1666667,6.14833333 L12.5366667,6.14833333 L12.225,4.13666667 C12.2210062,4.06978564 12.2109653,4.00340355 12.195,3.93833333 L12.195,3.91833333 L12.195,3.91833333 C12.143776,3.72474706 12.041288,3.54855992 11.8983333,3.40833333 C11.8122799,3.32834936 11.7144783,3.2620241 11.6083333,3.21166667 L10.63,2.71166667 L10.63,2.71166667 C10.4783788,2.6317071 10.3097433,2.58940533 10.1383333,2.58833333 L10,2.58833333 L7.24333333,2.62166667 C7.00005448,2.62255366 6.76931079,2.72970641 6.61166667,2.915 L4.85666667,5 C4.56837546,5.32792275 4.57412896,5.82056625 4.87,6.14166667 C5.0334197,6.30931533 5.25982381,6.4004881 5.4938199,6.39287847 C5.72781598,6.38526884 5.94781805,6.2795788 6.1,6.10166667 L7.63166667,4.29833333 L8.56666667,4.29833333 L5.705,7.92666667 L5.705,7.92666667 L5.735,7.88833333 L5.735,7.88833333 L5.71166667,7.91833333 L5.69666667,7.93833333 L5.69666667,7.93833333 L3.90333333,10.2066667 L0.833333333,10.2066667 C0.373096042,10.2066667 0,10.5797627 0,11.04 C-1.48029737e-16,11.5002373 0.373096042,11.8733333 0.833333333,11.8733333 L4.3,11.8733333 C4.55386299,11.873075 4.79376393,11.7571126 4.95166667,11.5583333 L6.55666667,9.525 L8.35,10.71 L8.35,10.71 L8.78333333,10.9966667 L6.97166667,13.6633333 C6.71530121,14.0274796 6.78207296,14.527542 7.125,14.8116667 C7.30855319,14.954546 7.54346979,15.0142056 7.7729551,14.9762218 C8.00244042,14.938238 8.20560595,14.8060683 8.33333333,14.6116667 L10.6333333,11.23 C10.757217,11.04644 10.802943,10.8211192 10.7604149,10.6037881 C10.7178868,10.3864571 10.5906026,10.1949914 10.4066667,10.0716667 L8.885,9.07166667 L10.885,6.36333333 L11,7.105 C11.0645434,7.5138751 11.4194263,7.81339626 11.8333333,7.80833333 L14.1666667,7.80833333 C14.626904,7.80833333 15,7.43523729 15,6.975 C15,6.51476271 14.626904,6.14166667 14.1666667,6.14166667 L14.1666667,6.14833333 Z" id="Path"></path>
                    </g>
                </g>
            </g>
        </g>
    </g>
</svg>