<?xml version="1.0" encoding="UTF-8"?>
<svg width="16px" height="14px" viewBox="0 0 16 14" version="1.1" xmlns="http://www.w3.org/2000/svg" xmlns:xlink="http://www.w3.org/1999/xlink">
    <!-- Generator: Sketch 53 (72520) - https://sketchapp.com -->
    <title>Fill 57</title>
    <desc>Created with Sketch.</desc>
    <g id="v2" stroke="none" stroke-width="1" fill="none" fill-rule="evenodd">
        <g id="Account-Menu---Desktop" transform="translate(-1220.000000, -103.000000)" fill="#FFFFFE">
            <g id="//-HEADER-//">
                <g id="::-logout" transform="translate(1183.000000, 80.000000)">
                    <path d="M51,23 L41,23 C39.8955,23 39,23.8955 39,25 L39,27 L40,27 L40,25 C40,24.448 40.448,24 41,24 L51,24 C51.552,24 52,24.448 52,25 L52,35 C52,35.552 51.552,36 51,36 L41,36 C40.448,36 40,35.552 40,35 L40,33 L39,33 L39,35 C39,36.1045 39.8955,37 41,37 L51,37 C52.1045,37 53,36.1045 53,35 L53,25 C53,23.8955 52.1045,23 51,23 L51,23 Z M45.6715,33.1215 C45.4765,33.3165 45.4765,33.6335 45.6715,33.8285 C45.8665,34.024 46.1835,34.024 46.379,33.8285 L49.8285,30.379 C49.9325,30.2745 49.977,30.136 49.97,30 C49.977,29.864 49.9325,29.7255 49.8285,29.6215 L46.379,26.172 C46.1835,25.9765 45.8665,25.9765 45.6715,26.172 C45.4765,26.3665 45.4765,26.6835 45.6715,26.879 L48.293,29.5 L37.5,29.5 C37.2235,29.5 37,29.724 37,30 C37,30.2765 37.2235,30.5 37.5,30.5 L48.293,30.5 L45.6715,33.1215 L45.6715,33.1215 Z" id="Fill-57"></path>
                </g>
            </g>
        </g>
    </g>
</svg>