<?xml version="1.0" encoding="UTF-8"?>
<svg width="41px" height="50px" viewBox="0 0 41 50" version="1.1" xmlns="http://www.w3.org/2000/svg" xmlns:xlink="http://www.w3.org/1999/xlink">
    <!-- Generator: Sketch 53 (72520) - https://sketchapp.com -->
    <title>Shape</title>
    <desc>Created with Sketch.</desc>
    <g id="v2" stroke="none" stroke-width="1" fill="none" fill-rule="evenodd">
        <g id="Account-Menu---Desktop" transform="translate(-700.000000, -380.000000)" fill="#263745" fill-rule="nonzero">
            <g id="//-MEDITATION-//" transform="translate(578.000000, 322.000000)">
                <g id="::-meditation-icon" transform="translate(122.000000, 58.000000)">
                    <path d="M40.7160694,39.0336407 C41.135718,37.6038069 40.3933903,36.0806073 39.0584051,35.6313554 C33.0993058,33.625847 30.5687665,22.1971742 29.9755066,17.9826556 C29.8886257,17.3858568 29.6008796,16.8069571 29.6008796,16.8069571 C28.5065109,14.576984 24.3642322,13.5364159 23.8980565,13.4762683 C23.0607169,13.3683898 22.9542614,12.6825792 22.9190272,12.4494067 C24.3818493,11.3598176 25.3696119,8.72912978 25.3696119,6.35322233 C25.3694613,2.84450981 25.0235939,0 20.5598406,0 C20.4999123,0 20.2707393,0 20.2108111,0 C15.7469072,0 15.4011903,2.84450981 15.4011903,6.35322233 C15.4011903,8.72912978 16.3889529,11.3598176 17.8516245,12.4494067 C17.8163903,12.6825792 17.6774109,13.3800001 16.8725952,13.4762683 C16.3708841,13.5365771 11.6156204,14.7383986 10.976285,17.3332882 C10.976285,17.3332882 10.8976856,17.7043322 10.8501044,17.9931371 C10.8437803,18.0319991 10.3511036,21.951424 8.87683783,26.208836 C7.61924744,29.8402624 5.36636579,34.4227612 1.77488516,35.6313554 C0.439749381,36.0806073 -0.302277137,37.6039681 0.117220809,39.0338019 C0.45450559,40.1828936 1.43955784,40.9207891 2.50622096,40.9333669 C0.370485542,42.2487108 0.0578948256,44.0826456 0.0578948256,45.0330731 C0.0578948256,45.4107285 0.24023941,46.6388343 1.07351351,47.7703494 C1.82156297,48.7875358 3.31299411,50 6.16771829,50 C6.59610008,50 7.04902535,49.9725869 7.51429766,49.9190508 C9.41318087,49.7003912 11.3280249,49.371918 13.1793268,49.0544101 C13.8513366,48.9391139 14.5227442,48.8241403 15.1952057,48.713843 C16.0906667,48.5664574 17.705267,48.4690603 19.9930817,48.4240706 L20.7774194,48.4240706 C23.0652341,48.4690603 24.6798344,48.5666186 25.5752954,48.713843 C26.2477569,48.8241403 26.9191644,48.9391139 27.5911743,49.0544101 C29.4424762,49.371918 31.3573202,49.7003912 33.2562034,49.9190508 C33.7216263,49.9725869 34.1745516,50 34.6027828,50 C37.457507,50 38.9489381,48.7873745 39.6969876,47.7703494 C40.5302617,46.6388343 40.7126063,45.4107285 40.7126063,45.0330731 C40.7126063,44.0824843 40.4000155,42.2483883 38.2638284,40.9330444 C38.2757237,40.9332056 38.287619,40.9344956 38.2993638,40.9344956 C39.3767176,40.9344956 40.3759238,40.1925688 40.7160694,39.0336407 Z M11.0058278,38.7264022 C9.6599041,39.1505425 9.35085881,39.1950964 8.19950746,39.3606964 C7.82486889,39.414193 7.36429681,39.4806246 6.75424773,39.5759604 C6.15681274,39.640316 5.60904575,39.7267091 5.10416667,39.8305085 C8.56468546,37.8940907 11.3557112,34.2025049 13.4242649,28.8135593 C13.5396838,29.8635302 13.6111111,31.0198555 13.6111111,32.2913184 C13.6111111,36.4397812 11.5364081,38.5590456 11.0058278,38.7264022 Z M33.9963427,39.5581196 C33.3936552,39.4641218 32.9394198,39.3918522 32.5685232,39.3458767 C28.9863567,38.8999777 27.2222222,36.4661122 27.2222222,32.3758705 C27.2222222,31.0685613 27.2985512,29.883591 27.4213007,28.8135593 C29.4773546,34.2185104 32.2644534,37.9111903 35.7291667,39.8305085 C35.2023408,39.7184039 34.6272252,39.6259806 33.9963427,39.5581196 Z" id="Shape"></path>
                </g>
            </g>
        </g>
    </g>
</svg>