<?xml version="1.0" encoding="UTF-8"?>
<svg width="13px" height="15px" viewBox="0 0 13 15" version="1.1" xmlns="http://www.w3.org/2000/svg" xmlns:xlink="http://www.w3.org/1999/xlink">
    <!-- Generator: Sketch 53 (72520) - https://sketchapp.com -->
    <title>Shape</title>
    <desc>Created with Sketch.</desc>
    <g id="v2" stroke="none" stroke-width="1" fill="none" fill-rule="evenodd">
        <g id="Questions---Mobile-(Collapsed-v1)" transform="translate(-150.000000, -70.000000)" fill="#AAAAAA" fill-rule="nonzero">
            <g id="//-SECTIONS-//" transform="translate(0.000000, 55.000000)">
                <g id="::-meditation" transform="translate(150.000000, 8.000000)">
                    <g id="meditatation-icon" transform="translate(0.000000, 7.000000)">
                        <path d="M12.1871228,11.7100922 C12.3127319,11.2811421 12.0905386,10.8241822 11.6909512,10.6894066 C9.90727519,10.0877541 9.14983486,6.65915226 8.97226049,5.39479668 C8.94625531,5.21575704 8.86012723,5.04208713 8.86012723,5.04208713 C8.5325611,4.37309519 7.29269536,4.06092476 7.15315976,4.0428805 C6.90252751,4.01051695 6.87066327,3.80477375 6.86011698,3.73482202 C7.29796851,3.40794528 7.59362533,2.61873893 7.59362533,1.9059667 C7.59358026,0.853352942 7.4900553,0 6.15396589,0 C6.13602817,0 6.06743218,0 6.04949447,0 C4.71335998,0 4.6098801,0.853352942 4.6098801,1.9059667 C4.6098801,2.61873893 4.90553692,3.40794528 5.34334338,3.73482202 C5.33279709,3.80477375 5.29119781,4.01400002 5.0503006,4.0428805 C4.90012856,4.06097313 3.47678433,4.42151959 3.28541865,5.19998645 C3.28541865,5.19998645 3.2618923,5.31129967 3.24765029,5.39794112 C3.24575737,5.40959974 3.09828951,6.58542721 2.65701269,7.86265081 C2.28059107,8.95207872 1.60625915,10.3268284 0.531258144,10.6894066 C0.131625665,10.8241822 -0.0904775104,11.2811904 0.0350865008,11.7101406 C0.13604249,12.0548681 0.430888061,12.2762367 0.750161376,12.2800101 C0.110893632,12.6746132 0.0173290634,13.2247937 0.0173290634,13.5099219 C0.0173290634,13.6232186 0.0719083949,13.9916503 0.321323771,14.3311048 C0.545229732,14.6362607 0.991644495,15 1.84611976,15 C1.97434288,15 2.10991235,14.9917761 2.24917753,14.9757152 C2.81755074,14.9101174 3.39070132,14.8115754 3.94483252,14.716323 C4.14597831,14.6817342 4.34694383,14.6472421 4.54822483,14.6141529 C4.81625397,14.5699372 5.29953569,14.5407181 5.98432377,14.5272212 L6.21909152,14.5272212 C6.90387959,14.5407181 7.38716132,14.5699856 7.65519046,14.6141529 C7.85647146,14.6472421 8.05743698,14.6817342 8.25858277,14.716323 C8.81271397,14.8115754 9.38586455,14.9101174 9.95423776,14.9757152 C10.093548,14.9917761 10.2291175,15 10.3572955,15 C11.2117708,15 11.6581856,14.6362124 11.8820915,14.3311048 C12.1315069,13.9916503 12.1860862,13.6232186 12.1860862,13.5099219 C12.1860862,13.2247453 12.0925217,12.6745165 11.4531187,12.2799133 C11.4566792,12.2799617 11.4602397,12.2803487 11.4637551,12.2803487 C11.7862284,12.2803487 12.0853105,12.0577706 12.1871228,11.7100922 Z M3.32575597,11.6070513 C2.94104154,11.735538 2.85270505,11.7490349 2.52360656,11.7992008 C2.4165211,11.8154068 2.28487269,11.8355312 2.11049826,11.8644117 C1.9397294,11.8839072 1.78315748,11.9100787 1.6388445,11.9415231 C2.62798784,11.3549155 3.4257655,10.2366071 4.01703408,8.60411003 C4.05002505,8.92218234 4.0704416,9.27247308 4.0704416,9.65764293 C4.0704416,10.9143551 3.4774153,11.5563532 3.32575597,11.6070513 Z M10.092917,11.8644117 C9.9185426,11.8355312 9.78711954,11.8133266 9.67980873,11.7992008 C8.64338734,11.6621999 8.13297369,10.9144035 8.13297369,9.6576913 C8.13297369,9.25602523 8.15505781,8.89194733 8.19057269,8.56318392 C8.78544684,10.2238358 9.5918328,11.3583986 10.5942717,11.9481022 C10.4418462,11.9136585 10.2754491,11.8852618 10.092917,11.8644117 Z" id="Shape"></path>
                    </g>
                </g>
            </g>
        </g>
    </g>
</svg>