<?xml version="1.0" encoding="UTF-8"?>
<svg width="29px" height="35px" viewBox="0 0 29 35" version="1.1" xmlns="http://www.w3.org/2000/svg" xmlns:xlink="http://www.w3.org/1999/xlink">
    <!-- Generator: Sketch 53 (72520) - https://sketchapp.com -->
    <title>Shape</title>
    <desc>Created with Sketch.</desc>
    <g id="v2" stroke="none" stroke-width="1" fill="none" fill-rule="evenodd">
        <g id="Account-Menu---Mobile" transform="translate(-44.000000, -418.000000)" fill="#263745" fill-rule="nonzero">
            <path d="M72.9167187,445.323548 C73.2147548,444.322665 72.6875507,443.256425 71.7394387,442.941949 C67.5072621,441.538093 65.7100627,433.538022 65.2887272,430.587859 C65.227024,430.1701 65.0226655,429.76487 65.0226655,429.76487 C64.2454404,428.203889 61.3035772,427.475491 60.9724973,427.433388 C60.3778153,427.357873 60.3022101,426.877805 60.2771866,426.714585 C61.3160889,425.951872 62.0176019,424.110391 62.0176019,422.447256 C62.017495,419.991157 61.7718585,418 58.6016827,418 C58.5591214,418 58.3963618,418 58.3538005,418 C55.1835178,418 54.9379882,419.991157 54.9379882,422.447256 C54.9379882,424.110391 55.6395012,425.951872 56.6782966,426.714585 C56.6532731,426.877805 56.5545694,427.366 55.982986,427.433388 C55.6266687,427.475604 52.249461,428.316879 51.7954024,430.133302 C51.7954024,430.133302 51.7395808,430.393033 51.7057884,430.595196 C51.701297,430.622399 51.351396,433.365997 50.3043665,436.346185 C49.4112206,438.888184 47.8112149,442.095933 45.2605307,442.941949 C44.3123118,443.256425 43.7853215,444.322778 44.0832507,445.323661 C44.3227917,446.128026 45.0223799,446.644552 45.7799284,446.653357 C44.2631203,447.574098 44.0411171,448.857852 44.0411171,449.523151 C44.0411171,449.78751 44.170619,450.647184 44.7624137,451.439245 C45.2936815,452.151275 46.3529019,453 48.3803387,453 C48.6845772,453 49.0062466,452.980811 49.3366849,452.943336 C50.6852795,452.790274 52.0452095,452.560343 53.3600117,452.338087 C53.8372758,452.25738 54.3141122,452.176898 54.7916971,452.09969 C55.4276571,451.99652 56.5743529,451.928342 58.1991682,451.896849 L58.7562081,451.896849 C60.3810234,451.928342 61.5277191,451.996633 62.1636792,452.09969 C62.6412641,452.176898 63.1181005,452.25738 63.5953646,452.338087 C64.9101668,452.560343 66.2700968,452.790274 67.6186914,452.943336 C67.9492366,452.980811 68.270906,453 68.5750376,453 C70.6024743,453 71.6616948,452.151162 72.1929626,451.439245 C72.7847573,450.647184 72.9142591,449.78751 72.9142591,449.523151 C72.9142591,448.857739 72.6922559,447.573872 71.1751271,446.653131 C71.1835752,446.653244 71.1920233,446.654147 71.2003645,446.654147 C71.9655056,446.654147 72.6751459,446.134798 72.9167187,445.323548 Z M51.8163839,445.108482 C50.8605033,445.40538 50.6410181,445.436568 49.8233237,445.552487 C49.5572538,445.589935 49.2301537,445.636437 48.7968943,445.703172 C48.3725935,445.748221 47.9835672,445.808696 47.625,445.881356 C50.0826746,444.525863 52.0648725,441.941753 53.5339677,438.169492 C53.6159387,438.904471 53.6666667,439.713899 53.6666667,440.603923 C53.6666667,443.507847 52.1932041,444.991332 51.8163839,445.108482 Z M68.1443413,445.690684 C67.7163102,445.624885 67.3937104,445.574297 67.1302981,445.542114 C64.5862288,445.229984 63.3333333,443.526279 63.3333333,440.663109 C63.3333333,439.747993 63.3875425,438.918514 63.4747197,438.169492 C64.9349376,441.952957 66.9143465,444.537833 69.375,445.881356 C69.0008461,445.802883 68.5923967,445.738186 68.1443413,445.690684 Z" id="Shape"></path>
        </g>
    </g>
</svg>