<?xml version="1.0" encoding="UTF-8"?>
<svg width="17px" height="17px" viewBox="0 0 17 17" version="1.1" xmlns="http://www.w3.org/2000/svg" xmlns:xlink="http://www.w3.org/1999/xlink">
    <!-- Generator: Sketch 53 (72520) - https://sketchapp.com -->
    <title>Fill 24</title>
    <desc>Created with Sketch.</desc>
    <g id="v2" stroke="none" stroke-width="1" fill="none" fill-rule="evenodd">
        <g id="Questions---Mobile-(Expanded)" transform="translate(-303.000000, -1463.000000)" fill="#D6D7D9">
            <g id="//-SWOT-ANALYSIS-//" transform="translate(0.000000, 1277.000000)">
                <g id="::-strengths" transform="translate(34.000000, 64.000000)">
                    <path d="M280.6875,131.03125 L274.3125,131.03125 C274.018719,131.03125 273.78125,130.792187 273.78125,130.5 C273.78125,130.207812 274.018719,129.96875 274.3125,129.96875 L280.6875,129.96875 C280.981281,129.96875 281.21875,130.207812 281.21875,130.5 C281.21875,130.792187 280.981281,131.03125 280.6875,131.03125 L280.6875,131.03125 Z M277.5,122 C272.805344,122 269,125.80375 269,130.5 C269,135.19625 272.805344,139 277.5,139 C282.194656,139 286,135.19625 286,130.5 C286,125.80375 282.194656,122 277.5,122 L277.5,122 Z" id="Fill-24"></path>
                </g>
            </g>
        </g>
    </g>
</svg>