<?xml version="1.0" encoding="UTF-8"?>
<svg width="26px" height="26px" viewBox="0 0 26 26" version="1.1" xmlns="http://www.w3.org/2000/svg" xmlns:xlink="http://www.w3.org/1999/xlink">
    <!-- Generator: Sketch 53 (72520) - https://sketchapp.com -->
    <title>Fill 28</title>
    <desc>Created with Sketch.</desc>
    <g id="v2" stroke="none" stroke-width="1" fill="none" fill-rule="evenodd">
        <g id="Tooltip---Desktop" transform="translate(-801.000000, -780.000000)" fill="#C0C1C3">
            <g id="//-BUTTONS-//" transform="translate(136.000000, 745.000000)">
                <g id="::-btn---next-question" transform="translate(556.000000, 35.000000)">
                    <path d="M122,24.375 C115.71775,24.375 110.625,19.280625 110.625,13 C110.625,6.719375 115.71775,1.625 122,1.625 C128.28225,1.625 133.375,6.719375 133.375,13 C133.375,19.280625 128.28225,24.375 122,24.375 L122,24.375 Z M122,0 C114.819938,0 109,5.8175 109,13 C109,20.1825 114.819938,26 122,26 C129.180062,26 135,20.1825 135,13 C135,5.8175 129.180062,0 122,0 L122,0 Z M127.309688,12.285 L122.714188,7.68625 C122.3965,7.369375 121.882188,7.369375 121.565313,7.68625 C121.247625,8.01125 121.247625,8.523125 121.565313,8.84 L124.913625,12.1875 L116.3125,12.1875 C115.863188,12.1875 115.5,12.553125 115.5,13 C115.5,13.446875 115.863188,13.8125 116.3125,13.8125 L124.913625,13.8125 L121.565313,17.16 C121.247625,17.476875 121.247625,17.996875 121.565313,18.31375 C121.882188,18.630625 122.3965,18.630625 122.714188,18.31375 L127.309688,13.715 C127.504688,13.52 127.565625,13.251875 127.520938,13 C127.565625,12.748125 127.504688,12.48 127.309688,12.285 L127.309688,12.285 Z" id="Fill-28"></path>
                </g>
            </g>
        </g>
    </g>
</svg>