<?xml version="1.0" encoding="UTF-8"?>
<svg width="30px" height="35px" viewBox="0 0 30 35" version="1.1" xmlns="http://www.w3.org/2000/svg" xmlns:xlink="http://www.w3.org/1999/xlink">
    <!-- Generator: Sketch 53 (72520) - https://sketchapp.com -->
    <title>Path</title>
    <desc>Created with Sketch.</desc>
    <g id="v2" stroke="none" stroke-width="1" fill="none" fill-rule="evenodd">
        <g id="Account-Menu---Mobile" transform="translate(-44.000000, -309.000000)" fill="#263745" fill-rule="nonzero">
            <g id="//-NUTRITION-//" transform="translate(28.000000, 285.000000)">
                <g id="::-apple-icon" transform="translate(16.000000, 24.000000)">
                    <path d="M15.4097665,8.98552033 C16.0589486,7.91017597 17.0862664,6.37114429 18.3838921,4.8943771 L18.3853692,4.8943771 C19.4843259,3.64102956 21.6364496,2.03240815 21.6364496,2.03240815 C21.9599328,1.78994291 21.9252211,1.45224962 21.5574251,1.28230419 L18.9562654,0.0765706586 C18.5884694,-0.0941072952 18.0884736,0.030421684 17.8447534,0.35199946 C17.8447534,0.35199946 15.9208405,3.08943943 13.6564578,8.91666313 C6.65503984,5.77560276 1.49213975e-13,10.1751383 1.49213975e-13,17.8256128 C1.49213975e-13,25.8167106 6.19861829,37.955356 14.5811177,34.2912739 C23.409699,38.0806175 29.1666667,25.8174432 29.1666667,17.8256128 C29.1666667,10.1092112 23.1844424,5.58514668 15.4097665,8.98552033 Z" id="Path"></path>
                </g>
            </g>
        </g>
    </g>
</svg>