<?xml version="1.0" encoding="UTF-8"?>
<svg width="13px" height="15px" viewBox="0 0 13 15" version="1.1" xmlns="http://www.w3.org/2000/svg" xmlns:xlink="http://www.w3.org/1999/xlink">
    <!-- Generator: Sketch 53 (72520) - https://sketchapp.com -->
    <title>Path</title>
    <desc>Created with Sketch.</desc>
    <g id="v2" stroke="none" stroke-width="1" fill="none" fill-rule="evenodd">
        <g id="Questions---Mobile-(Collapsed-v1)" transform="translate(-27.000000, -70.000000)" fill="#263745" fill-rule="nonzero">
            <g id="//-SECTIONS-//" transform="translate(0.000000, 55.000000)">
                <g id="::-nutrition" transform="translate(27.000000, 8.000000)">
                    <g id="nutrition-icon" transform="translate(0.000000, 7.000000)">
                        <path d="M6.70578851,3.85093728 C6.98828974,3.39007542 7.43534231,2.73049041 8.00002337,2.09759019 L8.00066615,2.09759019 C8.47889349,1.56044124 9.41542201,0.871032066 9.41542201,0.871032066 C9.55619054,0.767118389 9.54108524,0.622392693 9.38103335,0.549558937 L8.24910011,0.0328159965 C8.08904822,-0.0403316979 7.87146764,0.0130378646 7.76540916,0.150856911 C7.76540916,0.150856911 6.92818994,1.32404547 5.94281023,3.82142706 C2.89603931,2.47525833 0,4.36077358 0,7.63954834 C0,11.0643046 2.6974207,16.2665812 6.34518968,14.6962603 C10.1870778,16.3202647 12.6923077,11.0646185 12.6923077,7.63954834 C12.6923077,4.3325191 10.0890541,2.39363429 6.70578851,3.85093728 Z" id="Path"></path>
                    </g>
                </g>
            </g>
        </g>
    </g>
</svg>