<?xml version="1.0" encoding="UTF-8"?>
<svg width="42px" height="50px" viewBox="0 0 42 50" version="1.1" xmlns="http://www.w3.org/2000/svg" xmlns:xlink="http://www.w3.org/1999/xlink">
    <!-- Generator: Sketch 53 (72520) - https://sketchapp.com -->
    <title>Path</title>
    <desc>Created with Sketch.</desc>
    <g id="v2" stroke="none" stroke-width="1" fill="none" fill-rule="evenodd">
        <g id="Account-Menu---Desktop" transform="translate(-376.000000, -380.000000)" fill="#263745" fill-rule="nonzero">
            <g id="//-NUTRITION-//" transform="translate(255.000000, 322.000000)">
                <g id="::-apple-icon" transform="translate(121.000000, 58.000000)">
                    <path d="M22.1559777,12.8364576 C23.089364,11.3002514 24.5664291,9.1016347 26.4321398,6.99196729 L26.4342635,6.99196729 C28.0143304,5.20147079 31.108628,2.90344022 31.108628,2.90344022 C31.5737283,2.5570613 31.5238203,2.07464231 30.9950076,1.83186312 L27.2550913,0.109386655 C26.7262786,-0.134438993 26.0073906,0.0434595486 25.6569726,0.502856371 C25.6569726,0.502856371 22.8907937,4.4134849 19.6350915,12.7380902 C9.56853654,8.25086109 0,14.5359119 0,25.4651611 C0,36.8810152 8.9122991,54.2219372 20.9645563,48.9875342 C33.6581848,54.4008822 41.9354839,36.8820617 41.9354839,25.4651611 C41.9354839,14.4417303 33.3343135,7.97878097 22.1559777,12.8364576 Z" id="Path"></path>
                </g>
            </g>
        </g>
    </g>
</svg>