<?xml version="1.0" encoding="UTF-8"?>
<svg width="17px" height="18px" viewBox="0 0 17 18" version="1.1" xmlns="http://www.w3.org/2000/svg" xmlns:xlink="http://www.w3.org/1999/xlink">
    <!-- Generator: Sketch 53 (72520) - https://sketchapp.com -->
    <title>Shape Copy 2</title>
    <desc>Created with Sketch.</desc>
    <g id="Design-Builder" stroke="none" stroke-width="1" fill="none" fill-rule="evenodd">
        <g id="Dashboard---Mobile-" transform="translate(-133.000000, -1580.000000)" fill="#C0C1C3" fill-rule="nonzero">
            <g id="noun_Save_2214453" transform="translate(78.000000, 1580.000000)">
                <path d="M71.9458526,5.43166702 C71.7777915,5.23857541 71.5870704,5.06479296 71.4095676,4.88135593 C70.9790289,4.44110706 70.5503785,4.00085818 70.1198398,3.56060931 C69.6062146,3.03540013 69.0925895,2.51019095 68.5789644,1.98498176 C68.1427607,1.53894014 67.706557,1.09289852 67.2703533,0.646856898 C67.0815205,0.453765286 66.8983527,0.24329543 66.7000783,0.0617893156 C66.6245452,-0.00772366445 66.5395705,0.00386183222 66.4470424,0.00386183222 L56.9317592,0.00386183222 C56.7013832,0.00386183222 56.4596773,-0.0115854967 56.2311897,0.0193091611 C55.6986812,0.0907530573 55.2549242,0.471143531 55.0774214,0.98862905 C55.0188833,1.15661875 55.0037767,1.33619395 55.0037767,1.51190732 L55.0037767,16.366445 C55.0037767,16.4243725 55,16.480369 55,16.5382965 C55.0018883,16.9244797 55.1472896,17.2971465 55.4135438,17.5713366 C55.6816863,17.8455267 56.0442452,17.9961382 56.4219107,17.9980691 C56.4804489,17.9980691 56.5370987,18 56.5956369,18 L70.5862567,18 C70.5900334,18 70.59381,17.9980691 70.599475,17.9980691 C71.1244301,17.9884145 71.619172,17.6794679 71.8514363,17.1928771 C71.9571826,16.9727526 71.9968375,16.7371809 71.9968375,16.4938854 L71.9968375,5.7039262 C71.9987258,5.60931131 72.0157208,5.51083458 71.9458526,5.43166702 Z M57,5.78600845 L57,2.21550844 C57,2.20925538 57,2.20508667 57,2.1988336 C57,2.19466489 57,2.19049618 57.0019434,2.18632747 C57.0019434,2.18215876 57.0038868,2.17799005 57.0038868,2.17382134 C57.0038868,2.16965263 57.0058303,2.16756828 57.0058303,2.16339957 C57.0058303,2.15923086 57.0077737,2.15714651 57.0077737,2.1529778 C57.0077737,2.15089344 57.0097171,2.14672473 57.0097171,2.14464038 C57.0097171,2.14464038 57.0097171,2.14464038 57.0097171,2.14464038 C57.0116605,2.14047167 57.0116605,2.13838731 57.013604,2.1342186 C57.0155474,2.13213425 57.0155474,2.12796554 57.0174908,2.12588118 C57.0194342,2.11962812 57.0233211,2.11337505 57.0272079,2.10712199 C57.0310948,2.10295328 57.0330382,2.09670021 57.0369251,2.0925315 C57.0388685,2.09044715 57.0408119,2.08836279 57.0427553,2.08627844 C57.0446988,2.08210973 57.0466422,2.08002537 57.050529,2.07585666 C57.0621896,2.06335053 57.0738501,2.0508444 57.0874541,2.04042263 C57.091341,2.03833827 57.0952278,2.03625392 57.0971712,2.03416956 C57.0991147,2.03208521 57.1049449,2.03000085 57.1068884,2.0279165 C57.1068884,2.0279165 57.1068884,2.0279165 57.1088318,2.0279165 C57.1127186,2.02583214 57.1146621,2.02374779 57.1185489,2.02374779 C57.1204923,2.02166343 57.1243792,2.02166343 57.128266,2.01957908 C57.1302095,2.01957908 57.1321529,2.01749472 57.1340963,2.01749472 C57.1457569,2.01332601 57.155474,2.01124166 57.169078,2.0091573 C57.1710214,2.0091573 57.1749082,2.0091573 57.1768517,2.0091573 C57.1768517,2.0091573 57.1787951,2.0091573 57.1807385,2.0091573 C57.1846254,2.0091573 57.1885122,2.0091573 57.192399,2.0091573 C57.1982293,2.0091573 57.2001727,2.00707295 57.206003,2.00707295 C57.5538761,1.99248247 57.9017491,2.00498859 58.2515655,2.00498859 L65.807601,2.00498859 C65.9125459,2.00498859 66,2.10503763 66,2.2175928 L66,5.7880928 C66,5.79434587 66,5.80059893 66,5.806852 C66,5.81310506 66,5.81935813 66,5.82352684 L66,5.82352684 C66,5.8297799 65.9980566,5.83394861 65.9961132,5.84020168 C65.9961132,5.84645474 65.9941697,5.85062345 65.9922263,5.85479216 C65.9922263,5.85896087 65.986396,5.86104523 65.9844526,5.86521394 C65.9844526,5.86521394 65.9805658,5.86729829 65.9805658,5.86729829 L65.9805658,5.86729829 C65.9805658,5.87563571 65.9786223,5.88397313 65.9747355,5.8902262 C65.9727921,5.89439491 65.9727921,5.89856362 65.9708486,5.90064797 C65.9669618,5.90690104 65.9650184,5.91106975 65.9611315,5.91732281 C65.9591881,5.91940717 65.9572447,5.92149152 65.9553012,5.92566023 C65.9514144,5.92982894 65.9475275,5.93399765 65.9436407,5.93816636 C65.9125459,5.97360039 65.8678471,5.99861265 65.807601,5.99861265 C65.807601,5.99861265 65.8056575,5.99861265 65.8056575,5.99861265 C65.8017707,5.99861265 65.7998273,5.99444394 65.7959404,5.99444394 C65.7959404,5.99444394 65.793997,5.99444394 65.793997,5.99444394 C65.4461239,6.00903443 65.0963075,5.99027523 64.7484345,5.99027523 L57.1885122,5.99027523 C57.0835673,5.98402217 57,5.89856362 57,5.78600845 Z M67,12.509744 C67,12.5324294 66.9981114,12.5551149 66.9981114,12.5778003 C66.9981114,12.5778003 66.9981114,12.5778003 66.9981114,12.5778003 C66.9981114,12.7347079 66.981114,12.889725 66.9565623,13.0447422 C66.9206789,13.2886106 66.8564667,13.5268077 66.7677026,13.753662 C66.6638298,14.0239968 66.5240737,14.279208 66.3578772,14.5136241 C66.3578772,14.5136241 66.3578772,14.5136241 66.3559886,14.5155146 C66.3314368,14.5495427 66.3087737,14.5816804 66.2823333,14.6157086 C66.2691132,14.6346131 66.2540044,14.6516272 66.2407842,14.6686413 C66.227564,14.6856553 66.2124553,14.7026694 66.1992351,14.7196835 C66.1860149,14.7366976 66.1709061,14.7537117 66.1557974,14.7707257 C65.7157544,15.2849289 65.1284009,15.6743622 64.4692807,15.865298 C64.4655035,15.8671884 64.4617263,15.8671884 64.4560605,15.8690789 C64.435286,15.8747503 64.4126228,15.8804216 64.3918482,15.886093 C64.327636,15.9031071 64.2615351,15.9182307 64.1954342,15.9314638 C63.7327281,16.024096 63.2624675,16.0222056 62.8054272,15.9295734 C62.7752096,15.923902 62.7449921,15.9163402 62.7147746,15.9106689 C62.6694482,15.9012166 62.6222333,15.8879834 62.576907,15.8766407 C62.5655754,15.8728598 62.5542439,15.8709694 62.5429123,15.8671884 C62.5315807,15.8634075 62.5202491,15.8615171 62.5089175,15.8577362 C62.4862544,15.8520648 62.4635912,15.844503 62.4409281,15.8369412 C62.4258193,15.8312698 62.4107105,15.8274889 62.3956018,15.8218176 C62.380493,15.8161462 62.3653842,15.8123653 62.3502754,15.806694 C62.2464026,15.7726658 62.1425298,15.7329663 62.0424342,15.6875954 C61.804471,15.5798396 61.5797281,15.4399461 61.3719825,15.2887098 C61.3719825,15.2887098 61.3719825,15.2887098 61.3719825,15.2887098 C61.3587623,15.2735862 61.3455421,15.2622435 61.3342105,15.2527912 C61.3323219,15.2509008 61.3304333,15.2490103 61.3285447,15.2471199 C61.3096588,15.2319963 61.2907728,15.2187631 61.2718868,15.2036395 C61.1887886,15.1336927 61.1075789,15.059965 61.0301465,14.9824565 C60.9224965,14.8747006 60.8205123,14.759383 60.727971,14.638394 C60.7015307,14.6043659 60.6750903,14.5684473 60.6505386,14.5325287 C60.6259868,14.4966101 60.6014351,14.4606914 60.5768833,14.4247728 C60.5655518,14.4058683 60.5523316,14.3888542 60.541,14.3699497 C60.5296684,14.3510452 60.5183368,14.3321406 60.5070053,14.3151266 C60.423907,14.179014 60.3502517,14.03723 60.2879281,13.8916651 C60.2803737,13.8727606 60.2728193,13.8557465 60.2652649,13.836842 C60.2595991,13.8236088 60.2539333,13.8084852 60.2482675,13.795252 C60.2312702,13.753662 60.2161614,13.7120721 60.2010526,13.6704821 C60.1934982,13.6515776 60.1878325,13.6326731 60.1821667,13.6137685 C60.1689465,13.5759595 60.1576149,13.5381504 60.1462833,13.5003413 C60.1122886,13.3869142 60.0839596,13.2697061 60.0612965,13.152498 C60.0575193,13.1373744 60.0556307,13.1222508 60.0537421,13.1071271 C60.0442991,13.0579754 60.0367447,13.0088236 60.0310789,12.9615623 C60.0291903,12.9426577 60.0254132,12.9237532 60.0235246,12.9048487 C59.9970842,12.6836657 59.993307,12.4587018 60.0103044,12.2356283 C60.0254132,12.0541448 60.0537421,11.8783327 60.0934026,11.7025206 C60.0990684,11.6798351 60.1047342,11.6590402 60.1085114,11.6401356 L60.1085114,11.6401356 C60.1085114,11.6401356 60.1085114,11.6363547 60.1085114,11.6363547 C60.1311746,11.5493939 60.1557263,11.4624331 60.1859439,11.3773627 C60.3238114,10.9728057 60.5334456,10.5928247 60.8072921,10.2582145 C61.2341149,9.74023042 61.804471,9.37159209 62.4277079,9.16364227 C62.4277079,9.16364227 62.4277079,9.16364227 62.4277079,9.16364227 C62.4579254,9.16364227 62.488143,9.14473774 62.5183605,9.14473774 C62.5183605,9.14473774 62.5183605,9.14473774 62.5183605,9.14473774 C62.5485781,9.12583321 62.5806842,9.12583321 62.6109018,9.11638094 C62.6581167,9.10503822 62.703443,9.09180505 62.7506579,9.08235279 C62.7657667,9.07857188 62.782764,9.07479098 62.7978728,9.07290052 C63.2492474,8.98026833 63.7195079,8.97459697 64.1765482,9.06344826 C64.2067658,9.06911962 64.2350947,9.07479098 64.2653123,9.08235279 C64.2823096,9.08613369 64.299307,9.0899146 64.3144158,9.09369551 C64.327636,9.09747641 64.3408561,9.09936687 64.3540763,9.10314777 C64.3786281,9.11070958 64.4050684,9.11638094 64.4296202,9.12394275 C64.4296202,9.12394275 64.4296202,9.12394275 64.4296202,9.12394275 C64.514607,9.14662819 64.5977053,9.17309453 64.6789149,9.20523223 C64.7412386,9.22791767 64.8035623,9.25249355 64.865886,9.2789599 C64.9282096,9.30542624 64.9886447,9.33378303 65.0471912,9.36403028 C65.1076263,9.39427753 65.1661728,9.42641523 65.2228307,9.45855293 C65.2794886,9.49069063 65.3361465,9.52660923 65.3928044,9.56252784 C65.4116903,9.57387056 65.4305763,9.58710373 65.4475737,9.59844645 C65.483457,9.62302233 65.5193403,9.64948868 65.5552237,9.67406456 C65.8573991,9.89524756 66.1255798,10.1655823 66.3465456,10.4756166 C66.6449439,10.8915163 66.8394693,11.3698009 66.9301219,11.8707709 C66.9433421,11.9426081 66.9546737,12.0144453 66.9622281,12.0862825 C66.9678939,12.129763 66.9716711,12.1751338 66.9754482,12.2205047 C66.9792254,12.2658756 66.981114,12.309356 66.9848912,12.3547269 C66.9867798,12.4000977 66.9886684,12.4435781 66.9886684,12.488949 C66.9886684,12.4927299 66.9867798,12.4965108 66.9867798,12.5002917 L66.9867798,12.5059631 C66.9981114,12.5040726 67,12.5059631 67,12.509744 Z" id="Shape-Copy-2"></path>
            </g>
        </g>
    </g>
</svg>