<?xml version="1.0" encoding="UTF-8"?>
<svg width="17px" height="18px" viewBox="0 0 17 18" version="1.1" xmlns="http://www.w3.org/2000/svg" xmlns:xlink="http://www.w3.org/1999/xlink">
    <!-- Generator: Sketch 53 (72520) - https://sketchapp.com -->
    <title>Shape Copy</title>
    <desc>Created with Sketch.</desc>
    <g id="Design-Builder" stroke="none" stroke-width="1" fill="none" fill-rule="evenodd">
        <g id="Dashboard---Mobile-" transform="translate(-78.000000, -1580.000000)" fill="#00A6B5" fill-rule="nonzero">
            <g id="noun_Save_2214453" transform="translate(78.000000, 1580.000000)">
                <path d="M16.9458526,5.43166702 C16.7777915,5.23857541 16.5870704,5.06479296 16.4095676,4.88135593 C15.9790289,4.44110706 15.5503785,4.00085818 15.1198398,3.56060931 C14.6062146,3.03540013 14.0925895,2.51019095 13.5789644,1.98498176 C13.1427607,1.53894014 12.706557,1.09289852 12.2703533,0.646856898 C12.0815205,0.453765286 11.8983527,0.24329543 11.7000783,0.0617893156 C11.6245452,-0.00772366445 11.5395705,0.00386183222 11.4470424,0.00386183222 L1.93175922,0.00386183222 C1.70138324,0.00386183222 1.4596773,-0.0115854967 1.23118965,0.0193091611 C0.698681244,0.0907530573 0.254924237,0.471143531 0.0774214351,0.98862905 C0.0188832769,1.15661875 0.00377665537,1.33619395 0.00377665537,1.51190732 L0.00377665537,16.366445 C0.00377665537,16.4243725 0,16.480369 0,16.5382965 C0.00188832769,16.9244797 0.147289559,17.2971465 0.413543763,17.5713366 C0.681686294,17.8455267 1.04424521,17.9961382 1.42191075,17.9980691 C1.48044891,17.9980691 1.53709874,18 1.59563689,18 L15.5862567,18 C15.5900334,18 15.59381,17.9980691 15.599475,17.9980691 C16.1244301,17.9884145 16.619172,17.6794679 16.8514363,17.1928771 C16.9571826,16.9727526 16.9968375,16.7371809 16.9968375,16.4938854 L16.9968375,5.7039262 C16.9987258,5.60931131 17.0157208,5.51083458 16.9458526,5.43166702 Z M2,5.78600845 L2,2.21550844 C2,2.20925538 2,2.20508667 2,2.1988336 C2,2.19466489 2,2.19049618 2.00194342,2.18632747 C2.00194342,2.18215876 2.00388685,2.17799005 2.00388685,2.17382134 C2.00388685,2.16965263 2.00583027,2.16756828 2.00583027,2.16339957 C2.00583027,2.15923086 2.0077737,2.15714651 2.0077737,2.1529778 C2.0077737,2.15089344 2.00971712,2.14672473 2.00971712,2.14464038 C2.00971712,2.14464038 2.00971712,2.14464038 2.00971712,2.14464038 C2.01166055,2.14047167 2.01166055,2.13838731 2.01360397,2.1342186 C2.0155474,2.13213425 2.0155474,2.12796554 2.01749082,2.12588118 C2.01943425,2.11962812 2.0233211,2.11337505 2.02720795,2.10712199 C2.0310948,2.10295328 2.03303822,2.09670021 2.03692507,2.0925315 C2.03886849,2.09044715 2.04081192,2.08836279 2.04275534,2.08627844 C2.04469877,2.08210973 2.04664219,2.08002537 2.05052904,2.07585666 C2.06218959,2.06335053 2.07385014,2.0508444 2.08745411,2.04042263 C2.09134096,2.03833827 2.09522781,2.03625392 2.09717124,2.03416956 C2.09911466,2.03208521 2.10494494,2.03000085 2.10688836,2.0279165 C2.10688836,2.0279165 2.10688836,2.0279165 2.10883179,2.0279165 C2.11271864,2.02583214 2.11466206,2.02374779 2.11854891,2.02374779 C2.12049233,2.02166343 2.12437918,2.02166343 2.12826603,2.01957908 C2.13020946,2.01957908 2.13215288,2.01749472 2.13409631,2.01749472 C2.14575686,2.01332601 2.15547398,2.01124166 2.16907795,2.0091573 C2.17102138,2.0091573 2.17490823,2.0091573 2.17685165,2.0091573 C2.17685165,2.0091573 2.17879508,2.0091573 2.1807385,2.0091573 C2.18462535,2.0091573 2.1885122,2.0091573 2.19239905,2.0091573 C2.19822932,2.0091573 2.20017275,2.00707295 2.20600302,2.00707295 C2.55387605,1.99248247 2.90174908,2.00498859 3.25156554,2.00498859 L10.807601,2.00498859 C10.9125459,2.00498859 11,2.10503763 11,2.2175928 L11,5.7880928 C11,5.79434587 11,5.80059893 11,5.806852 C11,5.81310506 11,5.81935813 11,5.82352684 L11,5.82352684 C11,5.8297799 10.9980566,5.83394861 10.9961132,5.84020168 C10.9961132,5.84645474 10.9941697,5.85062345 10.9922263,5.85479216 C10.9922263,5.85896087 10.986396,5.86104523 10.9844526,5.86521394 C10.9844526,5.86521394 10.9805658,5.86729829 10.9805658,5.86729829 L10.9805658,5.86729829 C10.9805658,5.87563571 10.9786223,5.88397313 10.9747355,5.8902262 C10.9727921,5.89439491 10.9727921,5.89856362 10.9708486,5.90064797 C10.9669618,5.90690104 10.9650184,5.91106975 10.9611315,5.91732281 C10.9591881,5.91940717 10.9572447,5.92149152 10.9553012,5.92566023 C10.9514144,5.92982894 10.9475275,5.93399765 10.9436407,5.93816636 C10.9125459,5.97360039 10.8678471,5.99861265 10.807601,5.99861265 C10.807601,5.99861265 10.8056575,5.99861265 10.8056575,5.99861265 C10.8017707,5.99861265 10.7998273,5.99444394 10.7959404,5.99444394 C10.7959404,5.99444394 10.793997,5.99444394 10.793997,5.99444394 C10.4461239,6.00903443 10.0963075,5.99027523 9.74843446,5.99027523 L2.1885122,5.99027523 C2.08356726,5.98402217 2,5.89856362 2,5.78600845 Z M12,12.509744 C12,12.5324294 11.9981114,12.5551149 11.9981114,12.5778003 C11.9981114,12.5778003 11.9981114,12.5778003 11.9981114,12.5778003 C11.9981114,12.7347079 11.981114,12.889725 11.9565623,13.0447422 C11.9206789,13.2886106 11.8564667,13.5268077 11.7677026,13.753662 C11.6638298,14.0239968 11.5240737,14.279208 11.3578772,14.5136241 C11.3578772,14.5136241 11.3578772,14.5136241 11.3559886,14.5155146 C11.3314368,14.5495427 11.3087737,14.5816804 11.2823333,14.6157086 C11.2691132,14.6346131 11.2540044,14.6516272 11.2407842,14.6686413 C11.227564,14.6856553 11.2124553,14.7026694 11.1992351,14.7196835 C11.1860149,14.7366976 11.1709061,14.7537117 11.1557974,14.7707257 C10.7157544,15.2849289 10.1284009,15.6743622 9.4692807,15.865298 C9.46550351,15.8671884 9.46172631,15.8671884 9.45606052,15.8690789 C9.43528596,15.8747503 9.41262281,15.8804216 9.39184824,15.886093 C9.32763596,15.9031071 9.26153509,15.9182307 9.19543421,15.9314638 C8.73272807,16.024096 8.26246754,16.0222056 7.80542719,15.9295734 C7.77520965,15.923902 7.7449921,15.9163402 7.71477456,15.9106689 C7.66944824,15.9012166 7.62223333,15.8879834 7.57690701,15.8766407 C7.56557544,15.8728598 7.55424386,15.8709694 7.54291228,15.8671884 C7.5315807,15.8634075 7.52024912,15.8615171 7.50891754,15.8577362 C7.48625438,15.8520648 7.46359123,15.844503 7.44092807,15.8369412 C7.4258193,15.8312698 7.41071052,15.8274889 7.39560175,15.8218176 C7.38049298,15.8161462 7.36538421,15.8123653 7.35027544,15.806694 C7.24640263,15.7726658 7.14252982,15.7329663 7.04243421,15.6875954 C6.80447105,15.5798396 6.57972807,15.4399461 6.37198245,15.2887098 C6.37198245,15.2887098 6.37198245,15.2887098 6.37198245,15.2887098 C6.35876228,15.2735862 6.3455421,15.2622435 6.33421052,15.2527912 C6.33232193,15.2509008 6.33043333,15.2490103 6.32854473,15.2471199 C6.30965877,15.2319963 6.2907728,15.2187631 6.27188684,15.2036395 C6.18878859,15.1336927 6.10757894,15.059965 6.03014649,14.9824565 C5.92249649,14.8747006 5.82051228,14.759383 5.72797105,14.638394 C5.7015307,14.6043659 5.67509035,14.5684473 5.65053859,14.5325287 C5.62598684,14.4966101 5.60143508,14.4606914 5.57688333,14.4247728 C5.56555175,14.4058683 5.55233157,14.3888542 5.541,14.3699497 C5.52966842,14.3510452 5.51833684,14.3321406 5.50700526,14.3151266 C5.42390701,14.179014 5.35025175,14.03723 5.28792807,13.8916651 C5.28037368,13.8727606 5.27281929,13.8557465 5.26526491,13.836842 C5.25959912,13.8236088 5.25393333,13.8084852 5.24826754,13.795252 C5.23127017,13.753662 5.2161614,13.7120721 5.20105263,13.6704821 C5.19349824,13.6515776 5.18783245,13.6326731 5.18216666,13.6137685 C5.16894649,13.5759595 5.15761491,13.5381504 5.14628333,13.5003413 C5.11228859,13.3869142 5.08395964,13.2697061 5.06129649,13.152498 C5.05751929,13.1373744 5.0556307,13.1222508 5.0537421,13.1071271 C5.04429912,13.0579754 5.03674473,13.0088236 5.03107894,12.9615623 C5.02919035,12.9426577 5.02541315,12.9237532 5.02352456,12.9048487 C4.99708421,12.6836657 4.99330701,12.4587018 5.01030438,12.2356283 C5.02541315,12.0541448 5.0537421,11.8783327 5.09340263,11.7025206 C5.09906842,11.6798351 5.10473421,11.6590402 5.1085114,11.6401356 L5.1085114,11.6401356 C5.1085114,11.6401356 5.1085114,11.6363547 5.1085114,11.6363547 C5.13117456,11.5493939 5.15572631,11.4624331 5.18594386,11.3773627 C5.3238114,10.9728057 5.53344561,10.5928247 5.8072921,10.2582145 C6.23411491,9.74023042 6.80447105,9.37159209 7.42770789,9.16364227 C7.42770789,9.16364227 7.42770789,9.16364227 7.42770789,9.16364227 C7.45792544,9.16364227 7.48814298,9.14473774 7.51836052,9.14473774 C7.51836052,9.14473774 7.51836052,9.14473774 7.51836052,9.14473774 C7.54857807,9.12583321 7.58068421,9.12583321 7.61090175,9.11638094 C7.65811666,9.10503822 7.70344298,9.09180505 7.75065789,9.08235279 C7.76576666,9.07857188 7.78276403,9.07479098 7.7978728,9.07290052 C8.24924737,8.98026833 8.71950789,8.97459697 9.17654824,9.06344826 C9.20676579,9.06911962 9.23509473,9.07479098 9.26531228,9.08235279 C9.28230965,9.08613369 9.29930702,9.0899146 9.31441579,9.09369551 C9.32763596,9.09747641 9.34085614,9.09936687 9.35407631,9.10314777 C9.37862807,9.11070958 9.40506842,9.11638094 9.42962017,9.12394275 C9.42962017,9.12394275 9.42962017,9.12394275 9.42962017,9.12394275 C9.51460702,9.14662819 9.59770526,9.17309453 9.67891491,9.20523223 C9.74123859,9.22791767 9.80356228,9.25249355 9.86588596,9.2789599 C9.92820965,9.30542624 9.98864474,9.33378303 10.0471912,9.36403028 C10.1076263,9.39427753 10.1661728,9.42641523 10.2228307,9.45855293 C10.2794886,9.49069063 10.3361465,9.52660923 10.3928044,9.56252784 C10.4116903,9.57387056 10.4305763,9.58710373 10.4475737,9.59844645 C10.483457,9.62302233 10.5193403,9.64948868 10.5552237,9.67406456 C10.8573991,9.89524756 11.1255798,10.1655823 11.3465456,10.4756166 C11.6449439,10.8915163 11.8394693,11.3698009 11.9301219,11.8707709 C11.9433421,11.9426081 11.9546737,12.0144453 11.9622281,12.0862825 C11.9678939,12.129763 11.9716711,12.1751338 11.9754482,12.2205047 C11.9792254,12.2658756 11.981114,12.309356 11.9848912,12.3547269 C11.9867798,12.4000977 11.9886684,12.4435781 11.9886684,12.488949 C11.9886684,12.4927299 11.9867798,12.4965108 11.9867798,12.5002917 L11.9867798,12.5059631 C11.9981114,12.5040726 12,12.5059631 12,12.509744 Z" id="Shape-Copy"></path>
            </g>
        </g>
    </g>
</svg>