<?xml version="1.0" encoding="UTF-8"?>
<svg width="19px" height="19px" viewBox="0 0 19 19" version="1.1" xmlns="http://www.w3.org/2000/svg" xmlns:xlink="http://www.w3.org/1999/xlink">
    <!-- Generator: Sketch 53 (72520) - https://sketchapp.com -->
    <title>Combined Shape</title>
    <desc>Created with Sketch.</desc>
    <g id="v2" stroke="none" stroke-width="1" fill="none" fill-rule="evenodd">
        <g id="Questions---Mobile-(Collapsed-v1)" transform="translate(-303.000000, -404.000000)" fill="#00A6B5" fill-rule="nonzero">
            <g id="//-Q-&amp;-A-//" transform="translate(33.000000, 253.000000)">
                <g id="::-selectors" transform="translate(270.000000, 151.000000)">
                    <g id="selected">
                        <path d="M9.5,19 C4.25329488,19 0,14.7467051 0,9.5 C0,4.25329488 4.25329488,0 9.5,0 C14.7467051,0 19,4.25329488 19,9.5 C19,14.7467051 14.7467051,19 9.5,19 Z M13.2050368,5 L12.5920908,5.68218085 C10.9110002,7.54075745 9.37759981,9.36895809 7.7536162,11.1934879 L5.76289778,9.44015383 L5.08486017,8.84175532 L4,10.3377602 L4.67803761,10.9361645 L7.28170203,13.2340368 L7.88922372,13.7666262 L8.43707811,13.1622283 C10.3064189,11.0955602 11.9843383,9.06180915 13.8179828,7.03457447 L14.4309288,6.35239362 L13.2050368,5 Z" id="Combined-Shape"></path>
                    </g>
                </g>
            </g>
        </g>
    </g>
</svg>